<svg width="1090" height="630" xmlns="http://www.w3.org/2000/svg">
 <defs>
  <style>
   <!--#1b2e55  bg-->
   <!--fill: #003575;-->
   <!--stroke: #002849;-->.cls-1{fill:#003575;}
    .cls-2{fill:#022a59;stroke:#002849;stroke-width:0.25px;}
    .cls-2,.cls-4{stroke-miterlimit:10;}
    .cls-3{fill:#fff; height:30px}
    .cls-6, .cls-7, .cls-8{
    fill:none;
    stroke:#fff;
    stroke-dasharray: 750, 4497;
    opacity:0;
    }

    @keyframes mymove {
    from {
    stroke-dashoffset: 1000;
    opacity:0.8
    }
    to {
    stroke-dashoffset: 0;
    opacity:0;
    }
    }

    @keyframes short {
    from {
    stroke-dashoffset: 300;
    opacity:0.8
    }
    to {
    stroke-dashoffset: 0;
    opacity:0;
    }
    }

    #names{
    opacity:0.3
    }

    .animate{
    animation: mymove 15s infinite;
    }

    .animate10{
    animation: mymove 10s infinite;
    }

    .animate30{
    animation: short 6s infinite;
    }

    #p5{
    stroke-dasharray: 300, 2497
    }
    #p10{
    stroke-dasharray: 750, 2497;
    stroke-width : 2px
    }
    #p11, #p1, #p12, #p13{
    stroke-dasharray: 750, 2497;
    stroke-width : 2px
    }

    .cls-1{fill:#00406b;}.cls-2{fill:#002855;}.cls-2,.cls-3{stroke:#00406b;stroke-width:0.25px;}.cls-2,.cls-3,.cls-6,.cls-7,.cls-8{stroke-miterlimit:10;}.cls-3,.cls-6,.cls-7,.cls-8{fill:none;}.cls-4{opacity:0.3;}.cls-5{fill:#fff;}
    .cls-7{stroke-dasharray:750 4497;}.cls-8{stroke-dasharray:300 2497;}.cls-9{fill:#fff;}</style>var selects = document.getElementsByClassName("cls-6");



        setTimeout(function(){
        selects[0].classList.add('animate10');
        }, 1000);
        setTimeout(function(){
        selects[1].classList.add('animate');
        }, 3000);
        setTimeout(function(){
        selects[2].classList.add('animate');
        }, 5000);
        setTimeout(function(){
        selects[3].classList.add('animate');
        }, 6000);
        setTimeout(function(){
        selects[4].classList.add('animate');
        }, 8000);


        var selects2 = document.getElementsByClassName("cls-7");
        console.log(selects2);
        setTimeout(function(){
        selects2[0].classList.add('animate');
        }, 7000);
        setTimeout(function(){
        selects2[1].classList.add('animate');
        }, 9000);
        setTimeout(function(){
        selects2[2].classList.add('animate');
        }, 11000);
        setTimeout(function(){
        selects2[3].classList.add('animate');
        }, 13000);
        setTimeout(function(){
        selects2[4].classList.add('animate');
        }, 15000);
        setTimeout(function(){
        selects2[5].classList.add('animate');
        }, 17000);
        setTimeout(function(){
        selects2[6].classList.add('animate');
        }, 4000);
        var selects3 = document.getElementsByClassName("cls-8");
        setTimeout(function(){
        selects3[0].classList.add('animate');
        }, 1500);</defs>
 <g>
  <title>background</title>
  <rect fill="none" id="canvas_background" height="402" width="582" y="-1" x="-1"/>
 </g>
 <g>
  <title>Layer 1</title>
  <g id="bg">
   <rect y="0.315728" id="svg_1" height="630" width="1090" x="0.959569" class="cls-1"/>
  </g>
  <g id="map">
   <g id="Other_State_Boundarys-1">
    <path d="m236.14,139.6l4.2,0.1l8.2,-0.4l4.9,2.4l7.5,0.8l1.7,3l4,0.4l2.2,2.7l-0.1,5.4l-2.8,2.3l-2.3,1.9l-0.1,1.7l-2,-0.2l-2.2,1l5.1,2.6l3.1,0.3l2.3,2.8l3.4,-1.9l2.3,-1.2l3.1,-0.7l0.4,-1.6l2.8,0.4l0.8,-4.2l-1.3,-1l-1.8,-2.2s1.5,-7 1,-7s-2,-4.3 -2,-4.3l-1.9,-5l-2.9,-0.8l-3,0.6l-4.5,-2.5l-4.8,-6.7l-4.4,-1.8l-4.2,-4.1l-3.1,-2.8l-3.9,-4.2l-3.3,-0.3l-0.2,-3.3l2,-1.4l1.9,-2.8l-1.1,-2.1l-3.5,0l-2.5,-0.7l-1.6,1.7l-2.2,1.8l-4.2,-0.8l-2,-2.2l-2.5,-1l-3.1,-0.3l-0.6,-3l-1,-2.9l-2.7,-0.7l-1.5,-1.3s-13.1,-2.4 -13.5,-2.1s-2.5,1.5 -2.5,1.5l-3.9,0.9l-1.9,2.4l-5.4,1.5l-10.9,-1.2l-2.2,-3l-1.6,-0.1l-1.5,-1.8l-2.1,2.4l-2.4,0.2l-1.2,1.3l-4.4,-0.2l-1.4,-1.7l-3.4,0.1l-4.7,0l-1.4,0.9l-3.34,-1.7l-2.6,-1.8l-19.1,-1.1l-1.2,-1.9l-3.5,-0.5l-3.5,-4.2l-1.9,-2.3l-3.6,-0.4l-0.8,-2.5l-3.9,-1l-4.1,-3.8l-8.6,-1.9l-2,-2l-2.36,-3.1l-1.4,-3.6l-1.6,-2l-2.7,0.8l-2.2,-1.8l-2.6,-0.3l-1.5,1.2l-1.6,-0.2l-1.1,2.5l-0.2,1.8l-3.3,-0.9l-5.5,-0.1l-4.14,3.3l-2.7,0.2l-1,2.6l-2.3,1.5l-3,0.1l-0.3,1.4l-8.8,-1.7l-0.6,4.6l1.6,0.7l-0.1,3.5l-1.5,2l-1.9,-0.6l0.3,-2.6l-1.7,-0.6l-0.9,-1.1l-3.8,-0.1l-1.5,1.2l-2.1,1.7l-2.7,2.2l-1.26,2.3l0.2,3.2l-2.1,2.2l-0.5,2.3l0,3.9l1.6,2l1.5,3.2l1.3,1.7l0.7,0.8l0,2l2.8,1l2.8,1l2.7,1.7l4.9,0.3l0.6,1.9l3,0.9l2.5,0.3l2.1,2.2l1.8,2.1l0.5,2.5l5.1,-1.7l3,0.3l3.9,-3.2l4.1,-3.3l4.5,0.5l3,-2.4l5.3,-2.1l7.7,-1.9l7.9,-1.4l4.1,0.4l4.3,-1.2l5.5,-2.4l7.3,1.3l7.7,0.8l8.8,-2.1l8.8,0.9l8,2.8l10.9,1.2l8.8,0.9l4.3,1l3.8,4.7l8.4,0.5l7.4,0.8l4,1.3l10.8,2.3l3.5,4.4l3.8,1.7l4.1,0.4l6.4,2.6l1.8,2.3l1.3,1.7l-0.6,1.4l-0.2,2.3l1.5,2.6z" class="cls-2" id="NO-2"/>
    <path d="m31.44,244.6l6.4,-2.4l1.6,-2.5l-0.2,-3.6l-1.3,-1.1l-1.2,-2.5l0.6,-2.7l0.3,-3.1l-2.3,-2.4l-0.7,-0.9l1.5,-0.3l1.4,1.1l1.5,0.6l1.8,-0.3l1.3,-3l2.3,-0.1l2.5,-2l1.6,-1.3l6.3,4.1l1.5,4.1l2.6,2.2l0.2,2.6l1.7,3.6l1.2,1.5l0.5,3.1l0.7,2.8l2.2,1.4l3.2,1.4l-0.2,1.5l-1.3,2.1l-1.4,0.4l0.7,0.9l1.3,1.6l0.7,2.7l-1.6,1.3l-0.4,3.9l1.1,1.4l-1.2,2.1l-1.7,2.7l-2.1,0.6l-0.8,3l-2.7,-0.6l-1.5,-1.2l-0.7,-0.9l-1.5,0.2l-2.34,-1.2l-2.5,-0.9l-2.7,1.8l-2.3,0.2l-1.5,1.4l-1.9,1.8l-1.3,-3s-1.3,-2 -1.7,-2.1a28.18,28.18 0 0 0 -3.1,0.1l-1.6,-2l-2.4,-1.7l-1.9,-3.5l-3,-2.1l3.1,-2.5l1.4,-2.1l-0.7,-3.5l0.5,-2.7l0.04,0z" class="cls-2" id="LT-1"/>
    <path d="m65,265.4l1.7,-2.7l1.2,-2.1l-1.1,-1.4l0.4,-3.9l1.6,-1.3l-0.7,-2.7l-1.3,-1.6l-0.7,-0.9l1.4,-0.4l1.3,-2.1l0.2,-1.5l-3.2,-1.4l-2.2,-1.4l-0.7,-2.8l-0.5,-3.1l-1.2,-1.5l-1.7,-3.6l-0.2,-2.6l-2.6,-2.2l-1.5,-4.1l-6.3,-4.1l2.4,-0.5l1.5,0.6l1.4,-1.1l1.5,-2.1l2.1,-0.3l0.8,-1.2l2.6,0.7l3,0.2l1.5,-1.4l3.1,-0.3l4.4,0.5l-0.2,1.8l2.1,0.6l2.6,1.2l-0.8,2.1l-2.9,1.2l0.3,1.9l-0.2,2.3l0.2,2l-2,1.6l-1.5,1.8l1.1,1.3l-0.1,1.1l1.6,1.9l1.6,0.5l3.5,1.4l2.5,-1l2.2,-2.8l2.4,-0.5l1.4,-1.1l2.6,0.3l2.4,3a27.59,27.59 0 0 1 0.8,2.7c0,0.4 -0.6,3.1 -0.6,3.1l1.3,3l-1.9,2.8l0.4,2.7l2.1,1.1l1.1,2.2l0,4.1l-0.4,3.8l-4.7,2.3l-3,0.4l0.6,3.4l-2.4,3.4l-3.8,3.1l-1.1,-1l-2.3,-0.2l-3.3,-1.7l-1,2l-2.2,-0.6l0,-2.6l-1.1,-1.3l-2.3,-0.2l-3.2,-0.8z" class="cls-2" id="LV-4"/>
    <g id="EE-9">
     <polygon points="78.84 212.1 81.44 211 83.14 209.4 84.84 208 86.24 208.1 86.44 209.9 88.04 211.6 90.34 211 89.74 212.8 90.74 214.1 90.54 216.4 89.24 217.3 87.44 215.6 86.24 216.4 84.64 214 83.54 212.7 82.54 212.9 82.54 212.9 80.04 213.6 78.84 212.1" class="cls-2" id="polygon2994-8"/>
     <polygon points="93.84 206.6 92.14 206.4 92.04 207.5 92.34 208.9 92.34 208.9 92.54 210.8 93.24 211.8 95.04 212 96.34 210.8 96.14 208.4 94.34 208.2 93.84 206.6" class="cls-2" id="polygon2996-2"/>
     <path d="m125.64,241.8l-1,2.7l-4.8,-1.6l-3.9,1.8l-4.2,-0.6l-3.6,3.9l-4,1l-0.5,2.7l-2.3,2.2l-4.6,-0.3l-2.1,2l0,-4.1l-1.1,-2.2l-2.1,-1.1l-0.4,-2.7l1.9,-2.8l-1.3,-3s0.6,-2.7 0.6,-3.1a27.58,27.58 0 0 0 -0.8,-2.7l-2.4,-3l2.1,-1.6l1.6,-0.8l1.7,-1.4l-1.44,-1.4l-1.1,-0.1l-0.3,-2l-0.8,-1.6l1.5,-0.7l1.1,-2.6l1.8,-0.9l0.9,1.1l1.5,-1.2l0.2,-2.1l1.5,-1l2.3,-1.3l1.8,2.9l2.2,0.5l2.9,2.2l0.9,2l2,0.8l1.2,3.4l2.5,0.8l2.1,3l1.3,2.6l0.5,3.4l1.1,2.5l1.2,3.1l1.9,-0.2l2.44,1.5z" class="cls-2" id="path2998-4"/>
    </g>
    <polyline points="0.24 186.5 1.54 188.8 2.84 190.4 7.84 190.9 9.04 194.3 11.74 197.8 15.64 199.5 20.14 205.1 17.44 210.5 14.84 212.6 15.64 216.6 19.34 219.9 23.34 232.7 31.44 244.6 32.14 250.8 30.74 252.9 27.64 255.4 22.64 259.1 19.04 263.7 14.14 267.7 10.64 265.8 9.54 263.6 5.84 263.9 3.84 264.7 3.54 269 0.24 271.1" class="cls-2" id="PL-5"/>
    <g id="DK-2">
     <polygon points="11.34 143.4 9.34 144.9 9.14 146.9 10.54 148.5 12.24 146.3 15.54 146.6 17.14 148.5 15.14 150.1 12.24 153.3 8.44 150.8 6.84 152.1 5.14 153.5 3.44 151.4 4.44 141.6 4.44 141.6 5.74 140 7.84 140.8 8.94 142.1 11.34 143.4" class="cls-2" id="polygon3002-9"/>
     <polygon points="17.74 130.8 19.44 127.3 18.54 122 18.24 117.8 12.54 117.9 8.94 117 7.14 116.8 5.64 131 5.64 131 6.94 129.9 8.34 131.8 10.94 131.2 13.74 132.8 13.64 135.5 15.44 135.7 17.34 134.2 17.74 130.8" class="cls-2" id="polygon3004-9"/>
     <polygon points="10.44 173.9 9.24 176.4 10.74 178.3 12.64 176.8 10.44 173.9" class="cls-2" id="polygon3006-8"/>
    </g>
    <g id="SWE-3">
     <path d="m57.24,122.1l5.1,-1.7l3,0.3l3.9,-3.2l4.1,-3.3l4.5,0.5l3,-2.4l5.3,-2.1l7.7,-1.9l7.9,-1.4l4.1,0.4l4.3,-1.2l5.5,-2.4l7.3,1.3l7.7,0.8l8.8,-2.1l8.8,0.9l8,2.8l10.9,1.2l8.8,0.9l4.3,1l3.8,4.7l8.4,0.5l7.4,0.8l4,1.3l10.8,2.3l3.5,4.4l3.8,1.7l4.1,0.4l6.4,2.6l1.8,2.3l1.3,1.7l-0.6,1.4l-0.2,2.3l1.5,2.6l-2,1.6l-1.1,3.6l-7.7,-2.3l-3.8,3.1l-3.5,0.8l-4.5,3.7l-3.3,4.8l-3.5,1.8l-4.8,1.7l-2.5,1l-0.3,2.7l-3.2,2.7l-1.1,-1.4l-2.3,-2.9l-1.7,-4.1l-3.1,-1l-3.6,0.7l-0.9,-1.7l-4.1,-0.2l-0.9,2.5l-2.7,-1.2l-2.3,-0.2l-4.3,2.1l-0.4,3.3l-3.5,-1.4l-2.14,-0.2l-2.2,1.8l-3.3,-1.6l-5,-1.2l-3.5,-2.4l-1.7,-2.4l-3.5,0.4l-4.7,-2.5l-2.5,-0.1l-1.1,-2l-1.7,-1.1l-3,2.4l-3.5,-0.4l-2.4,-1.6l-3.7,1.5l-2.6,2.1l-2.8,1.3l-1.3,-1.6l-3.1,0.3l-3.3,2.7l-2.9,1.8l-3.1,1.7l-1.7,2.7l-0.6,5.3l0.7,3.2l-2.3,1.8l-3.3,3.7l-2.5,2.1l-3.5,-1.3l-2,-0.2l-3.8,-1.8l-0.8,-1l2.6,-2.1l2.5,-2l-1.3,-1.7l-3.4,-2.2l-0.8,-4l-3.3,0.1l1,1.2l-0.1,1.4l0.9,5.6l-1.9,2.6l-3.3,0.3l-4.6,-0.6l-1.9,-2.4l-1.1,-1.4l0.1,-1.1l-0.8,-1l-0.4,3.5l-3,0.6l-3.6,2.9l-2.5,-0.9l-1.4,1.1l-2.4,0.7l-4.1,1.4l-4.9,0.8l-5.1,1.4l-4.3,-0.5l-1.4,1.1l-4,0l-1.9,-3.8l-1.1,-2.5l-0.5,-3l-2.8,-1.3l-1.8,-2.2l-4,0.5l-1.4,3.2l-3.8,-0.4l-0.4,-3.5l-1.7,-2.1l-2.4,-2.9l1.6,-2.8l3,-0.6l2.9,-2.1l2.5,-2.8a6.74,6.74 0 0 0 2.4,-0.1c0.4,-0.3 2.6,-1.7 2.6,-1.7l3.2,1.3l1.6,-2.9l1.6,-3.6l0.7,-0.6l0.1,-2.2l0.6,-1.6l2.5,-1.3l2.1,-4.3l2.7,-1.4l1.8,-1l1.1,-1.6l3.3,-0.8l2.5,-0.9l0.5,-1l3.4,0l2.3,-1.2l2,-0.3l0.7,-3l1.5,-0.8l0.04,0z" class="cls-2" id="path3009-8"/>
     <polygon points="36.54 178.9 32.74 180.6 33.94 182 37.64 181.3 42.54 180.9 47.04 180.2 48.84 178.8 43.74 178.2 38.44 177.7 36.54 178.9" class="cls-2" id="polygon3011-6"/>
     <polygon points="58.44 192.3 60.54 190.6 63.44 190.3 67.54 191.7 64.24 187.6 62.54 185.5 59.24 186.7 56.54 185.5 56.54 185.5 53.24 188.2 50.54 190.4 52.34 190.6 58.44 192.3" class="cls-2" id="polygon3013-9"/>
    </g>
    <g id="FI-8">
     <polygon points="117.64 184.2 116.54 186.1 114.14 188.1 113.14 190.1 113.44 192.4 112.64 192.9 111.54 193.7 113.74 194.5 113.34 197.7 112.64 200.2 111.24 199.4 109.34 199.2 108.34 200.1 109.34 201.7 110.64 202.3 112.24 202.4 111.34 205.1 109.14 205.3 109.04 206.1 112.04 207 111.84 209.1 114.34 210.2 115.74 213.3 117.34 213.5 119.54 213.9 121.84 216.8 125.34 220 127.34 220.2 129.64 222.1 131.84 223.7 130.54 224.7 132.64 226.3 134.54 227.7 134.44 230.1 137.14 231 177.94 235.2 185.94 233.3 186.44 228.6 189.04 216.7 194.14 217.2 198.84 214.2 199.34 209.5 202.74 208.5 203.44 202.3 206.34 202.5 213.34 198.1 216.24 199.8 224.34 188 225.14 184.7 231.34 179.7 240.64 180.7 244.04 175.9 245.14 166.1 251.24 163.8 259.24 160.7 261.44 159.7 263.54 159.9 263.64 158.2 265.94 156.3 268.74 154 268.84 148.6 266.64 145.9 262.64 145.4 260.94 142.5 253.44 141.7 248.54 139.3 240.34 139.7 236.14 139.6 234.14 141.3 233.04 144.8 225.34 142.5 221.54 145.6 218.04 146.4 213.44 150.1 210.14 154.9 206.64 156.8 201.84 158.5 199.34 159.5 199.04 162.2 195.94 164.9 197.44 167.4 197.44 167.4 198.14 166.8 199.04 167.6 197.54 168.9 195.94 171.1 195.84 174.2 193.04 176.5 190.64 177.2 189.34 179.5 186.94 179.4 185.04 177.2 182.44 176.9 181.14 178 177.64 176.7 173.34 176.3 168.84 176.4 167.24 174.4 163.14 174.9 160.34 174.2 158.04 173.1 155.64 172.9 153.54 173.9 150.94 173.7 151.14 171.5 149.14 169.8 147.04 171.1 143.94 170.8 141.34 170.1 139.44 171.6 137.44 171.3 137.04 175 135.04 177.2 133.24 176.5 130.74 177.8 130.94 179.9 128.74 181.4 126.64 183.1 124.54 182.3 122.74 184.1 119.54 185 117.64 184.2" class="cls-2" id="polygon3016-6"/>
     <polygon points="104.74 180.1 100.74 179.5 100.74 179.5 99.44 181.2 101.44 182 103.44 182 104.74 180.1" class="cls-2" id="polygon3018-6"/>
    </g>
    <path d="m0.24,272.5l0,-1.4l3.3,-2.1l0.3,-4.3l2,-0.8l3.7,-0.3l1.1,2.1l3.5,1.9l4.9,-4l3.5,-4.6l5,-3.7l0,0l3,2.1l1.9,3.5l2.4,1.7l1.6,2s2.7,-0.1 3.1,-0.1s1.7,2.1 1.7,2.1l1.3,3l1.9,-1.8l1.5,-1.4l2.3,-0.2l2.7,-1.8l2.5,0.9l2.3,1.2l1.5,-0.2l0.7,0.9l1.5,1.2l2.7,0.6l0.8,-3l2.1,-0.6l0,0l2.8,0.9l2.3,0.2l1.1,1.3l0,2.6l2.2,0.6l1,-2l3.3,1.6l2.3,0.2l1.1,1l-0.8,2.5l1.2,3.8l2.3,2.8l-1.2,2.8l-1.4,2.6l3.4,1.3l2.8,3.3l-0.7,6.2l-3.8,2.5l-1.6,2.6l-3.8,0.7l-1.9,3.9l-2.5,4.5l-1.6,4.3l-0.2,3.1l-2,1.1l2.4,3l-1.5,3.9l-1.3,3.5l-3.6,0.7l-3.5,-1.7l-0.8,-2.9l-1.8,-2.4l-2.7,-0.1l-1.3,3.2l-2.7,2.5l-3.8,3.1l-2,2.7l-2.8,-4.4l-3.7,-0.4l-4.3,-0.8l-3.2,2.6l-3.8,-0.4l0.1,-4l-2.7,-3.3l-2.1,-2.6l0.4,-3.5l-4.1,-2.8l1.2,-3.5l-2.74,-3.3l-2.6,-3.2l0.2,-2l-2.2,-4.9l0,-3.9l-2.9,-7.5l-2.76,-3.4l-3.74,-4.5l-1.4,-1.7l-3.36,0" class="cls-2" id="BY-2"/>
    <path d="m0.24,422.5l4.5,0.5l1,1.2l1.2,2.9l4.7,0.9l1.7,2.1l4.2,1l1.2,1.4l3.4,0.4l1.7,2.1l1.7,2.1l1.9,0.6l0,0l3,-2.6l4.2,-1.4l3.3,1.8l3.2,-0.9l2.6,3.4l3.9,5.2l4.4,-3.6l2.9,-1.4l-0.3,-4.1l2.8,-2.3l2.5,0.6l0.1,-2.9l6.8,-0.2l1.6,-3l1.7,-1.6l-2.9,-1.8l0.4,-3.8l-2.64,-3.6l-0.6,-4.3l-2.6,-1.9l-2.6,-3.6l1.5,-3.7l-0.5,-5.8l-3.1,-2.9l-3.7,-3.5l-0.8,-4.3l-2.5,-2.5l-0.6,-2.6l2.6,-2.5l2.2,-3.8l0.4,-3.8l-1.6,-3.9l-1.7,-3.3l2,-1.3l1.4,-2.6l2.2,0.2l1.8,-1.4l1.8,-4.8l0.7,-2.9l-1.1,-3.8l-1.8,-2.2l-2.7,-0.7l-1.8,-2.4l-1.4,-2.5l-2.7,1.8l-1.7,-2.1l-1.3,-2.9l-2.8,-4.4l-3.7,-0.4l-4.3,-0.8l-3.2,2.6l-3.8,-0.4l0.1,-4l-2.7,-3.3l-2.1,-2.6l0.4,-3.5l-4.1,-2.8l1.2,-3.5l-2.7,-3.3l-2.6,-3.2l0.2,-2l-2.2,-4.9l0,-3.9l-2.9,-7.5l-2.86,-3.6l-3.74,-4.5l-1.4,-1.7l-3.36,0" class="cls-2" id="UA-3"/>
    <polyline points="0.24 598.2 3.74 598.5 5.84 600.2 7.14 595 10.34 592.5 7.04 588.2 7.64 585.2 6.34 580.2 9.54 580.5 11.84 578.6 11.24 575.6 10.94 570.9 13.74 568.7 16.44 566.7 14.14 561.8 14.54 558.6 9.64 556.8 6.74 553.3 3.84 552 0.24 550.5" class="cls-2" id="AM-6"/>
    <line y2="588.8" x2="1.34" y1="584.9" x1="2.24" class="cls-3" id="AM-6-2"/>
    <g id="AZ-2">
     <polyline points="0.44 581.4 2.24 584.9 1.34 588.8 0.24 593.5" class="cls-2" id="polygon3026-7"/>
     <polygon points="37.84 577.3 36.54 571 36.64 566.6 33.94 564.3 30.14 563.7 28.14 565.3 29.74 567.3 30.34 570 29.14 573.7 26.44 573.4 25.34 569.2 22.74 569 22.04 562.4 19.44 559.2 17.54 559 14.54 558.6 14.14 561.8 16.44 566.7 10.94 570.9 11.24 575.6 11.84 578.6 9.54 580.5 6.34 580.2 7.64 585.2 7.04 588.2 10.34 592.5 7.14 595 5.84 600.2 5.84 600.2 11.84 600.2 15.64 599.4 17.64 601.2 22.54 601 25.94 603.1 26.44 607.5 24.14 609.3 21.94 611.1 21.74 613.2 17.34 611.5 16.04 616.1 18.54 619.2 18.04 624.2 21.24 625.7 24.04 622.8 25.04 619.2 28.34 618.8 30.24 617.3 30.84 620.1 33.14 618.2 36.74 617.3 37.84 613.5 42.44 611.6 45.74 608.9 50.74 610 53.04 612.9 55.44 613.2 55.84 610 52.64 607.2 51.34 604 51.04 598.1 53.24 592.3 53.84 586.9 55.14 583 53.64 581.2 49.04 582.7 46.34 581.1 41.94 582.1 38.04 580.8 37.84 577.3" class="cls-2" id="polygon3028-5"/>
    </g>
    <polyline points="0.24 492.6 2.34 495.8 4.24 496.4 4.84 500.1 7.04 504.6 7.94 509.1 11.64 512.3 14.24 513.9 15.44 518.2 18.24 521.1 17.14 524.7 19.44 527.3 19.54 533.3 21.84 536.1 25.74 537.1 27.74 539.6 28.24 541.6 31.24 542.3 31.84 545.7 34.24 548.9 32.84 551.8 30.94 554.4 33.14 558 34.14 561.9 33.94 564.3 30.14 563.7 28.14 565.3 29.74 567.3 30.34 570 29.14 573.7 26.44 573.4 25.34 569.2 22.74 569 22.04 562.4 19.44 559.2 14.54 558.6 9.64 556.8 6.74 553.3 0.24 550.5" class="cls-2" id="GE-7"/>
    <polyline points="0.24 598.2 4.24 598.6 6.34 600.2 12.34 600.3 16.14 599.5 18.14 601.3 23.04 601 26.44 603.2 27.04 607.5 24.64 609.4 22.44 611.2 22.24 613.3 17.84 611.6 16.54 616.1 19.04 619.2 18.54 624.2 21.84 625.8 20.04 628.7 18.64 629.8 18.64 629.8 18.64 629.8 0.24 629" class="cls-2" id="IR-8"/>
    <polyline points="197.24 630 196.64 627.3 183.84 600.3 154.34 592.3 128.44 630 115.94 630 116.54 624.1 112.64 616.5 108.34 613 101.14 610.2 96.54 609.6 91.84 608.9 93.24 606.5 97.54 603 100.54 598.6 97.94 595.4 95.84 592.8 95.34 586.4 92.64 584.1 96.74 580.1 96.34 573.8 99.74 567.9 95.24 562.3 96.74 559.6 100.44 560 102.54 562.6 104.84 566.6 107.94 566.9 108.54 561.1 111.54 558.7 116.34 559.2 120.74 561.4 126.54 565.6 130.34 570.3 131.44 569.4 129.54 565 132.44 562.1 136.04 561 138.44 557.3 142.24 554.2 144.84 552.1 143.34 546.2 139.04 543.8 136.84 545.6 133.34 538.1 131.74 533.8 126.94 533 120.84 531.2 115.04 531.7 112.14 529.9 109.44 530.9 109.64 528.5 106.44 529.5 106.44 529.5 104.44 527 103.14 523.6 103.14 520.3 105.84 520.9 107.44 523.1 109.54 521.4 110.14 516.4 109.84 510.1 111.24 505.5 109.24 503 106.14 499.4 103.94 497.7 106.54 495.5 108.14 490.9 105.84 488 105.04 484.3 108.14 482.6 110.74 480.5 114.04 481 117.24 480.1 117.64 476.8 120.24 474.7 123.34 472.2 126.94 472.6 129.44 471.1 131.04 468.3 134.14 468.6 135.84 470.8 134.34 474.2 133.94 477.8 136.24 480.8 140.64 482 141.34 478.6 144.04 476.5 145.14 474.6 149.34 475 153.14 475.5 155.24 472.9 159.14 473.3 162.54 475.7 166.84 474.7 169.44 472.7 173.84 474 174.64 477.8 174.34 481.2 176.84 481.5 181.34 481.2 183.44 483.9 184.34 487.1 188.54 489.2 190.94 492.8 191.14 497.8 192.44 502.7 193.64 506 191.14 507.9 190.84 510.9 193.24 511.1 195.84 507.7 198.64 510.8 200.34 515.2 203.34 516.4 207.24 516.3 211.64 514.7 214.54 516.7 217.74 519.8 218.74 522.7 222.34 521.8 226.54 522.2 228.54 524.8 228.04 529.4 230.44 532.4 230.94 534.5 234.14 538.5 237.34 538.8 239.44 537 241.34 537.2 242.44 540.4 244.34 542.7 248.44 542.8 252.54 543.3 255.14 541.2 258.04 538 255.74 535.1 255.34 532 253.84 530 251.54 527.2 250.64 524.5 252.54 520.8 256.04 522.1 259.24 521.5 260.84 518.3 260.14 513.7 263.34 512.7 268.14 513 270.84 516.5 273.44 516.7 275.94 514.7 273.74 512 271.94 509.8 270.04 508.3 272.94 506 271.94 503.1 273.64 499.2 277.44 499.7 281.44 502.3 284.04 505.2 287.44 504.6 291.94 506 298.14 506.5 302.14 508.2 305.24 508.5 308.54 510.7 312.24 510.4 314.64 508.5 316.54 508.7 321.04 511.7 325.94 512.2 330.04 511.9 333.14 514.1 337.24 513.4 341.74 513.9 344.34 511.1 348.24 511.9 351.64 514.4 356.24 514.9 357.54 518.4 360.84 518.7 363.44 520.3 364.34 525 363.24 527.5 362.84 530.9 360.34 533 360.94 536.3 364.84 537.8 368.74 536 371.14 538.9 369.44 543.1 373.04 544.6 375.24 542.8 378.24 545.1 381.94 545.5 381.64 548.1 377.04 549.6 375.44 554.4 378.54 554.8 382.54 553.3 384.24 556.5 388.84 554.6 394.14 553.7 397.44 551 400.34 551.2 404.14 551.4 407.24 549 410.44 549.3 411.14 552 408.64 554.7 406.04 554.4 405.74 557.7 408.64 559.3 410.74 561.8 412.34 566.5 414.14 568.7 416.84 572.1 418.24 579.7 417.64 585.7 420.24 588.7 419.84 593.1 422.34 598.9 422.74 603.7 423.54 608.1 425.44 613.1 429.54 612.8 431.94 608.8 434.94 608.2 436.74 610.8 436.44 613.5 438.24 615.7 440.14 618.2 444.24 617.9 445.84 619.9 450.54 619.6 453.04 617.6 457.74 618.1 459.74 620.6 462.94 622.4 465.24 625.1 466.04 630" class="cls-2" id="KZ-2"/>
    <polyline points="761.24 630.2 764.34 627.8 768.54 624.4 773.34 622.8 776.64 624.5 780.24 626.9 785.64 624.5 789.54 622.8 794.44 624.2 793.64 630" class="cls-2" id="MN-7"/>
    <polyline points="603.44 630 603.54 625.9 606.24 623.7 609.04 619.3 612.14 616.7 614.44 614.9 618.34 618.4 625.44 619.2 628.64 623.1 633.94 622.3 638.54 622.8 643.04 625.1 646.94 629.9" class="cls-2" id="MN-7-2"/>
    <g id="CN-8">
     <path d="m793.64,630l0.8,-5.8l6.7,1.3l0,0l6.2,-1.5l3.9,-3.2l3.1,-5.5l4,-0.7l0.5,-5.1l-1.5,-1.8l-2.1,-5.6l2.5,-4.9l0.5,-4.9l1.9,-7.7l1.8,-2.9l-0.8,-6l-2.3,-2.8l-2,-2.5l-3.1,2l-1.7,-2.8l1.8,-3.5l2.7,-5.8l3.1,-2.5l6.1,-2.8l3.2,-2.6l6.7,-3.9l4.6,0.5l4.3,-1l5.4,1.5l4.6,-1.9l3.8,0.4l7.2,1.5l2,2.4l3.5,2l1,4l3.9,1.5l2.6,3.2l3.8,3.7l1.4,4.6l4.3,1.2s3.2,3.1 3.1,3.8s2.8,2.9 2.8,2.9l2.4,2.9l1.8,4.7l5.3,1.7l5.7,-1.4l2.2,-1.8l4.9,0.5l5.4,-0.2l3.4,1.3l4.1,1.5l2.3,-1.9l3.8,1.4l2.1,2.6l2.6,2.9l-0.5,4.2l2.5,1.2l3.2,2.4l3.5,0.4l1.3,-3.2l3.4,-0.7l4.1,-1.8l4.2,-2.7l-1,-4.7l3.7,-3.8l3.4,-4.4l1.5,-3.5l4.6,-1.9l3.1,0.3l0.5,2.5l2.4,2.9l2,2.5l-0.4,4l-3,2.4l3.2,4.2l0.5,4.1l1.6,3.7l-1,2.8l2.2,3.7l-0.1,4.2l1.4,4.2l-1.9,3.7l2.4,4.9l-2,3.1l-2.9,2.4l-2.9,-1.3l-3.1,1.1" class="cls-2" id="path3035-0"/>
    </g>
    <polyline points="128.44 630 154.34 592.3 183.84 600.3 196.64 627.3 197.24 630" class="cls-2" id="UZ-0"/>
    <g id="TM-8">
     <polyline points="104.14 630 103.04 625.6 105.64 621.7 106.64 617.9 105.54 615.4 102.94 612.2 99.94 612.7 97.24 610.9 94.44 614.1 91.54 616.5 88.74 618.8 88.34 615.9 91.44 611.5 91.84 608.9 96.54 609.6 101.14 610.2 108.34 613 112.64 616.5 116.54 624.1 115.94 630" class="cls-2" id="polygon3041-9"/>
    </g>
    <g id="US-2">
     <polygon points="1091.24 59.4 1091.64 55.7 1092.24 50.7 1084.64 58 1084.64 58 1082.34 57.8 1081.14 65.1 1078.34 67.3 1081.54 70.9 1084.54 68.5 1084.94 65.2 1091.24 59.4" class="cls-2" id="polygon3047-0"/>
    </g>
   </g>
   <polygon points="799.04 171.4 795.54 169.8 794.04 166.9 793.34 165.7 793.34 165.7 793.14 164.3 795.54 165.7 796.84 164.6 798.84 163.1 801.64 160.8 803.04 162.8 803.84 162.9 806.14 161.1 808.24 159.1 812.04 157.8 814.54 160.1 812.54 164 812.34 166.4 810.44 167.9 807.54 168.9 804.44 169.7 801.44 169.4 799.04 171.4" class="cls-2" id="polygon3064"/>
   <polygon points="784.54 181.6 782.34 179.5 779.54 177.4 776.74 174.9 778.04 172.9 779.74 171.5 780.54 175.8 782.24 177.9 785.44 178.9 787.44 178.2 789.14 178.4 790.94 176.9 790.54 173.4 787.84 173.1 788.84 170.2 789.04 168 786.84 168.5 786.84 168.5 781.54 167.9 779.64 169.5 776.74 171.1 774.94 168.9 769.94 169.9 769.94 172.9 771.04 174.2 772.74 176.2 773.84 177.6 771.84 178.9 769.54 176.5 768.14 177.7 766.44 175.7 762.24 176.1 760.54 174.9 759.44 176.9 760.64 178.4 758.04 179.4 757.74 182.6 759.44 184.8 758.74 187.1 760.54 187.2 762.64 189.8 761.64 192.4 764.54 194.2 768.44 194.8 769.94 196.6 772.94 196.9 776.44 196.3 776.74 193.7 774.84 191.5 776.14 190.4 777.64 192.4 781.34 187.1 784.54 184.6 785.64 185.9 788.54 183.6 789.64 181.2 786.74 179.9 784.54 181.6" class="cls-2" id="polygon3066"/>
   <polygon points="786.54 197.9 784.94 199.1 785.74 202.5 787.44 204.6 789.34 201.7 789.54 199.2 788.54 197.9 786.54 197.9" class="cls-2" id="polygon3068"/>
   <polygon points="804.84 200.5 801.74 200.2 797.34 198.2 795.14 199.9 793.04 201.6 793.04 201.6 790.94 203.3 791.74 206 793.34 208 791.84 210.5 792.74 211.6 794.54 208.6 798.44 208.2 801.94 207.2 806.74 205.1 804.84 200.5" class="cls-2" id="polygon3070"/>
   <polygon points="756.54 190.5 755.24 188.9 752.54 188.4 754.14 190.3 754.74 194.3 756.94 194.6 757.14 192.4 756.54 190.5" class="cls-2" id="polygon3072"/>
   <polygon points="666.94 246 663.54 248.8 663.24 250.8 665.84 251.1 666.44 253.2 668.74 252.4 671.44 250.2 671.94 246.2 668.74 245.9 666.94 246" class="cls-2" id="polygon3074"/>
   <polygon points="787.24 141.1 786.04 142.8 787.04 144 788.34 143 787.24 141.1" class="cls-2" id="polygon3076"/>
   <polygon points="771.04 214 770.24 212.4 770.24 212.4 767.14 211.4 766.04 212.1 767.84 213.1 769.94 215.2 771.04 214" class="cls-2" id="polygon3078"/>
   <polygon points="636.54 200.9 635.74 201.8 637.14 203 637.94 201.9 636.54 200.9" class="cls-2" id="polygon3080"/>
   <polygon points="631.04 185.4 629.24 186.2 631.44 187.6 633.04 189 634.84 188.7 634.54 186.5 632.74 186.8 631.04 185.4" class="cls-2" id="polygon3082"/>
   <polygon points="606.54 192.5 609.94 190.4 611.84 189.4 616.24 187.7 619.54 187.7 624.04 185 626.44 181.4 625.44 178 624.24 175.3 622.14 175.9 620.54 172.3 619.24 170.6 617.14 172.6 615.64 175.6 615.64 175.6 615.94 173.3 616.54 169.1 615.64 166.7 613.94 166.7 611.34 169.3 611.24 171.8 610.04 173.3 610.24 177.9 608.04 179.6 607.74 184.1 606.34 187.8 605.14 191.5 606.54 192.5" class="cls-2" id="polygon3084"/>
   <path d="m602.64,156.3l-1.7,1.7l-1.6,2.3l-1.1,-0.6l1.2,-3.1l0.3,-3.3l-3.8,0.8s-2.2,0.3 -2.7,0.4l-3.1,0.7l-1.4,2.4l-0.9,2.1l-1.7,1.7l0.3,2.2l-3,1.9l1.2,1.3l2.1,-0.4l1.4,2.5l-0.1,2.2l1.3,2l3.8,0.7l0.3,2.2l2.8,-1.4l1.1,2.3l3.5,1.7l3.7,-1.3l1.9,-2.1l-1,-2.8l-1.8,-3.2l1.8,-1l1,-2.7l-0.5,-3.2l0.7,-3.1l-3.7,-2.6l-0.3,-0.3z" class="cls-2" id="path3086"/>
   <polygon points="594.24 208.6 594.24 206.6 594.24 206.6 592.44 208.4 590.24 208.7 592.04 210.4 594.24 208.6" class="cls-2" id="polygon3088"/>
   <polygon points="566.74 203 565.74 204.2 566.74 205.3 568.54 203.3 566.74 203" class="cls-2" id="polygon3090"/>
   <path d="m544.84,246.5l-2.1,0.8a7.94,7.94 0 0 0 0.6,2.2c0,-0.3 1.6,-0.5 1.6,-0.5l-0.1,-2.5z" class="cls-2" id="path3092"/>
   <polygon points="532.14 230.1 530.24 231.4 530.94 233.5 532.64 233.3 532.14 230.1" class="cls-2" id="polygon3094"/>
   <polygon points="531.64 252.4 529.24 251.7 529.24 251.7 528.64 253.5 531.44 253.8 532.84 255.4 533.24 253 531.64 252.4" class="cls-2" id="polygon3096"/>
   <polygon points="532.44 154.1 530.14 152.5 530.14 152.5 529.04 153.4 530.04 154.2 531.74 155.7 532.44 154.1" class="cls-2" id="polygon3098"/>
   <polygon points="507.64 266.8 506.34 268.1 506.74 270.2 507.74 271.8 509.64 270.2 510.54 268.1 509.24 266.5 507.64 266.8" class="cls-2" id="polygon3100"/>
   <polygon points="497.74 274.9 500.04 275.2 502.44 273.4 500.64 271.2 498.64 271.5 498.64 271.5 496.64 273.1 494.44 274.6 496.14 276.1 497.74 274.9" class="cls-2" id="polygon3102"/>
   <polygon points="497.84 253.5 494.64 252.5 494.64 252.5 493.04 253.7 493.84 255.3 495.94 254.1 498.34 255.1 497.84 253.5" class="cls-2" id="polygon3104"/>
   <polygon points="486.34 258.3 485.24 260.4 486.44 261.7 488.14 260 486.34 258.3" class="cls-2" id="polygon3106"/>
   <polygon points="470.34 245.9 469.74 245.7 469.74 245.7 467.74 246.8 468.24 248.4 466.74 250 466.94 251.2 469.84 252.4 472.84 251.3 474.44 251.7 474.64 250 472.04 249.1 473.54 247.7 472.24 245.4 470.34 245.9" class="cls-2" id="polygon3108"/>
   <polygon points="390.44 272.3 392.14 273 392.44 276.5 395.94 277.2 397.34 274.6 396.04 271.6 396.54 268.4 395.14 264.1 395.14 264.1 392.34 265.1 390.24 265.6 390.34 270 390.44 272.3" class="cls-2" id="polygon3110"/>
   <polygon points="334.34 244 331.84 246.6 330.04 248.6 330.84 251.9 333.34 253.1 335.74 254.4 338.24 253 341.04 253.8 342.84 250.5 340.84 247.2 340.94 244.8 338.14 243.4 338.14 243.4 334.34 244" class="cls-2" id="polygon3112"/>
   <polygon points="230.64 234.3 229.84 235.2 230.84 236.8 232.44 235.5 230.64 234.3" class="cls-2" id="polygon3114"/>
   <polygon points="416.74 197.8 420.74 198.1 418.84 195.7 422.34 195.9 423.54 197.4 423.74 194 425.54 192.6 423.94 190.2 425.34 188.5 427.14 190.7 429.54 191 429.84 188.5 433.34 190.2 435.34 188.4 437.44 186.5 439.74 186.7 443.94 185.3 446.64 186.6 450.74 187.1 453.74 184.6 456.94 185.2 458.24 187.5 461.74 187.9 463.14 189.7 466.24 189.2 470.34 189.6 473.44 187.2 476.84 185.8 481.34 184.6 485.24 185.1 487.24 188.9 486.74 192.9 482.94 195.7 479.54 198.3 475.34 198.2 470.14 200 465.84 197.9 463.44 199.8 458.34 199.1 451.74 198.4 448.94 200.8 443.84 200.2 439.74 201.9 440.64 204.7 437.94 205.4 434.74 204.8 431.94 204.4 431.44 206.2 428.54 205.1 428.24 208.1 425.04 209.9 422.34 211.5 422.64 208.6 420.44 210.2 420.64 213.6 418.64 213.4 417.34 211.8 417.24 213.4 416.94 215.9 415.64 214.3 413.64 216 411.84 217.4 409.74 217.1 407.84 219.1 405.24 222.5 401.84 222.1 398.74 224.2 398.44 227.3 395.44 228.2 394.14 231.4 391.54 233.4 391.14 237.6 389.64 240.4 390.64 244.9 388.84 249 390.34 252.1 390.94 255.1 389.84 256 386.84 257 387.04 254.9 384.64 253.1 384.64 253.1 382.74 252.9 381.14 249.7 379.84 250.3 376.74 246.6 374.44 243.5 375.74 240.6 378.44 240.1 379.64 238.5 377.94 236.8 378.54 232.9 377.44 232.4 376.64 229.3 374.14 228.9 372.44 225.9 373.44 222.3 376.54 218.9 379.64 219.6 380.54 220.9 381.64 221.5 382.34 219.4 386.24 218.6 389.64 215.8 387.84 213.4 390.64 212.1 393.54 213.6 394.64 211.2 394.84 208.7 398.64 209.1 400.34 211.1 402.44 209.4 403.04 207.7 407.24 207.3 405.94 205.8 402.54 204.1 402.74 202.8 406.94 202.1 411.34 201.4 413.74 199.5 416.54 199.8 416.74 197.8" class="cls-2" id="polygon3116"/>
   <polygon points="548.24 133.6 546.34 132.6 546.34 132.6 544.94 132.7 543.94 133.5 545.14 135 547.04 134.6 548.24 133.6" class="cls-2" id="polygon3118"/>
   <polygon points="580.84 133.4 577.94 133.2 577.94 133.2 576.54 134.3 577.44 135.4 578.34 136.5 580.64 134.8 580.84 133.4" class="cls-2" id="polygon3120"/>
   <polygon points="598.24 140.7 595.14 136.9 594.14 134 591.24 132.8 591.24 132.8 590.54 135.5 587.94 136.4 584.04 138.4 583.64 141.9 584.94 143.5 582.74 145.3 581.24 147.7 582.74 150.3 583.14 152.9 586.04 155.9 589.14 153.5 591.04 153.7 594.14 152.4 597.64 151.6 597.04 148.3 597.54 144.2 599.74 142.6 598.24 140.7" class="cls-2" id="polygon3122"/>
   <polygon points="580.74 154.7 578.44 154.2 578.54 157.2 578.34 159.1 581.24 160.3 582.34 161.6 584.44 160 585.74 157.4 584.04 155.9 580.74 154.7" class="cls-2" id="polygon3124"/>
   <polygon points="536.74 220.8 535.74 221.6 536.74 222.7 538.74 222.4 536.74 220.8" class="cls-2" id="polygon3126"/>
   <polygon points="509.04 102.6 507.44 101.7 507.44 101.7 506.04 102 506.94 103.6 506.84 105 508.74 105.2 509.04 102.6" class="cls-2" id="polygon3128"/>
   <polygon points="500.24 117 499.24 118.8 500.74 119.4 503.74 119.7 506.34 117.6 508.34 116 508.04 113.3 505.74 113.3 505.74 113.3 504.64 114.7 501.04 115 498.54 116 500.24 117" class="cls-2" id="polygon3130"/>
   <polygon points="496.54 108.9 494.64 109.6 494.64 109.6 493.84 110.3 495.14 111.9 497.84 111.2 498.04 109 496.54 108.9" class="cls-2" id="polygon3132"/>
   <polygon points="490.44 111.3 488.84 112.6 487.54 114.7 487.24 117.4 489.44 118.1 489.84 119.8 492.84 119.4 494.84 117.8 496.34 116.5 497.34 114.3 495.34 114.1 492.24 113.7 492.24 113.7 490.44 111.3" class="cls-2" id="polygon3134"/>
   <polygon points="484.64 122.9 483.04 122.4 483.04 122.4 482.14 123.2 481.94 124.9 483.74 125.1 484.64 122.9" class="cls-2" id="polygon3136"/>
   <polygon points="482.84 113.3 480.04 115 480.04 115 479.14 113.9 476.14 113.6 475.94 115.7 474.14 117.1 474.94 118.2 478.34 117.8 479.44 119.2 482.34 118.8 483.34 117 485.34 117.9 484.54 115.3 482.84 113.3" class="cls-2" id="polygon3138"/>
   <polygon points="497.64 93.8 496.64 95.3 497.94 96.9 499.44 95.7 497.64 93.8" class="cls-2" id="polygon3140"/>
   <polygon points="494.24 97.3 492.04 97 491.74 99.5 493.84 102.1 493.64 104 495.74 103.2 494.84 100.5 494.24 97.3" class="cls-2" id="polygon3142"/>
   <polygon points="479.74 102.9 477.84 102.7 477.44 103.1 478.84 104.8 479.74 102.9" class="cls-2" id="polygon3144"/>
   <polygon points="481.04 106.2 479.64 107.4 480.74 109 482.34 109 481.04 106.2" class="cls-2" id="polygon3146"/>
   <polygon points="482.94 100.4 482.74 102.1 484.64 102.3 484.44 100.2 482.94 100.4" class="cls-2" id="polygon3148"/>
   <polygon points="485.14 105.1 484.94 106.7 486.54 106.8 485.44 105.5 485.14 105.1" class="cls-2" id="polygon3150"/>
   <polygon points="486.34 108.9 486.94 109.6 488.34 108.5 486.34 108.9" class="cls-2" id="polygon3152"/>
   <polygon points="489.04 101.8 488.84 103.8 490.44 104.1 490.64 102 489.04 101.8" class="cls-2" id="polygon3154"/>
   <polygon points="486.94 97.7 487.74 99.6 488.74 98.8 487.94 97.8 486.94 97.7" class="cls-2" id="polygon3156"/>
   <polygon points="469.74 105.3 468.14 107.3 468.14 107.3 466.94 108.3 468.54 110.2 470.54 110.5 470.84 107.2 469.74 105.3" class="cls-2" id="polygon3158"/>
   <polygon points="472.84 105.6 473.34 107.6 474.64 107.8 474.84 106.1 472.84 105.6" class="cls-2" id="polygon3160"/>
   <polygon points="468.54 96.3 470.34 94.9 467.84 93.1 466.34 93.9 466.34 93.9 464.84 95.1 464.64 96.6 462.94 98 460.34 95.7 457.84 96.7 457.74 98.3 455.04 96 452.74 96.6 453.14 99.9 455.24 99.5 455.04 101.7 457.14 102.4 459.34 100.7 462.24 99.8 464.54 100.7 467.94 101.1 470.64 98.9 468.54 96.3" class="cls-2" id="polygon3162"/>
   <polygon points="460.14 90.2 458.94 89.6 458.94 89.6 455.94 89.3 454.34 87.3 452.84 89.7 454.24 91.4 454.64 93.3 458.34 92.5 459.44 93.8 461.84 93.1 462.74 94.2 462.94 92.1 461.54 90.4 460.14 90.2" class="cls-2" id="polygon3164"/>
   <polygon points="460.04 104.3 458.84 104.2 459.14 106 461.54 106.4 460.04 104.3" class="cls-2" id="polygon3166"/>
   <polygon points="460.54 109.3 460.14 108 460.14 108 458.74 109.1 459.64 110.2 461.84 111 460.54 109.3" class="cls-2" id="polygon3168"/>
   <polygon points="472.04 91.4 471.84 93.2 473.14 93.4 474.74 92.1 472.04 91.4" class="cls-2" id="polygon3170"/>
   <path d="m0.54,450.3l2.7,1.2l1.6,-2.6l3.16,-0.9l4.2,0.3l2.2,0.2l2.6,1.2l1,-4.5l-1.2,-2.9l1,-2.3l2.1,0.6l1.9,1.7l2,2.2l1.8,-1.5l2.4,1.4l4.1,1l3,1.6l1.1,-3.2l-2,-1.9l-3,-1.1l-1.8,-2.2l-2.1,-1l3,-2.6l4.2,-1.4l3.3,1.8l3.2,-0.9l2.6,3.4l3.9,5.2l4.4,-3.6l2.9,-1.4l-0.3,-4.1l2.8,-2.3l2.5,0.6l0.1,-2.9l6.8,-0.2l1.6,-3l1.6,-1.6l-2.9,-1.8l0.4,-3.8l-2.6,-3.6l-0.6,-4.3l-2.6,-1.9l-2.6,-3.6l1.5,-3.7l-0.5,-5.8l-3.1,-2.9l-3.7,-3.5l-0.8,-4.3l-2.5,-2.5l-0.6,-2.6l2.6,-2.5l2.2,-3.8l0.4,-3.8l-1.6,-3.9l-1.7,-3.3l2,-1.3l1.4,-2.6l2.2,0.2l1.8,-1.4l1.8,-4.8l0.7,-2.9l-1.1,-3.8l-1.8,-2.2l-2.7,-0.7l-1.8,-2.4l-1.4,-2.5l-2.7,1.8l-1.7,-2.1l-1.3,-2.9l2,-2.7l3.8,-3.1l2.7,-2.5l1.2,-3.2l2.8,0.1l1.8,2.4l0.8,2.9l3.5,1.7l3.6,-0.7l1.3,-3.5l1.5,-3.9l-2.4,-3l2,-1.1l0.2,-3.1l1.6,-4.3l2.5,-4.5l1.9,-3.9l3.8,-0.7l1.6,-2.6l3.8,-2.5l0.7,-6.2l-2.8,-3.2l-3.4,-1.3l1.4,-2.6l1.2,-2.8l-2.3,-2.8l-1.3,-3.8l0.8,-2.5l3.8,-3.1l2.4,-3.4l-0.5,-3.4l3,-0.4l4.7,-2.3l0.4,-3.8l2.1,-2l4.6,0.3l2.3,-2.2l0.5,-2.7l4,-1l3.6,-3.9l4.2,0.6l3.9,-1.8l4.8,1.6l1,-2.7l1.8,-1.5l2.9,1.8l2.3,3l3.9,1.7l1.1,3.4l1.1,3.8l2.4,-2l0.2,-5.3l-3,-3.3l0.7,-6.2l3,-0.4l1,-0.8l-3.8,-2.1l-2.1,-3l40.9,4.2l8,-1.9l0.5,-4.7l2.6,-11.9l5.1,0.6l4.8,-3l0.5,-4.7l3.4,-0.9l0.7,-6.2l2.9,0.1l6.9,-4.4l2.9,1.8l8,-11.8l0.8,-3.3l6.2,-5l9.3,1l3.5,-4.8l1.1,-9.9l6.1,-2.3l8.1,-3l5.1,2.6l3.1,0.3l2.3,2.8l3.4,-1.9l-1.2,3.7l3.1,0l4.4,0.6l-0.3,2.9l0.6,3.4l-1.9,-1.5l-1.9,-2.3l-2.1,1.7l0.5,3.6l-0.4,3.5l2.9,2l2.1,2.6l-0.4,3.8l2.5,1.6l-0.5,4.3l2.7,3.3l0.9,5.3l-0.6,5.3l-1.4,4.5l0.8,2.7l-0.5,5.6l2.9,3.5l-0.6,4l-1.4,6.5l-3.8,5.2l-5.4,4.3l-5.1,-0.6l-5.8,0.5l-4.7,-2.4l-5.1,-3.6l-3,-3.7l0.6,-5l-3.1,-3.8l-1.2,-4l-0.9,-3.8l-1.9,-4.3l-0.6,-6.9l-2.4,-1.4l1.3,-4l2.3,-1.9l-2.3,-2.8l-1.5,3.1l-1.9,1.6l0.3,4.1l-0.4,4.7l-2.2,1.8l2.4,2.9l-1.2,3.9l-3.2,5.4l-4.6,0.9l-3.9,3.2l-2.1,6.3l-3.7,3l0.7,3.9l1.1,4.9l-3.1,4.4l3.3,4.1l3.6,4.4l4.9,-2.8l1.4,-4.5l-2.1,-2.6l0.8,-4l0.3,-3.1l3.4,-3l3.1,0.3l0.2,8.3l0.4,5.5l2.9,3.5l1.6,4.4l5,2.1l1.7,-1.4l-0.9,-3.2l3.4,-2.2l0.9,-6.4l5.6,1.5l5.5,-1.4l4.1,2.8l5.1,-1l3.4,0.4l1.9,2.3l2.6,5.1l-2.8,2.3l-0.4,4l2.6,-2.6l3.5,-2.9l4.5,-0.4l4.2,-4.9l0.5,-4.6l1.8,-2.9l5,-1.9l0.3,-2.9l4.9,-2.2l0.5,-4.6l-0.3,-4.4l3.1,0.3l0.8,2.4l3.7,4.5l2.6,5.1l-0.7,6.4l-1.5,3.2l-1.8,1.5l-2.4,-3l-3.7,-1.3l-6,1.4l-0.5,4.7l1,4.5l-0.4,3.6l4.1,1.5l3.8,2.2l4.8,-1.7l0.4,-3.3l4.9,-0.6l4.3,2.7l-0.4,-3l7,2l3.9,-0.3l6.8,1.6l4,0.4l1.6,3.9l1.8,0.2l0.4,-3.3l6,-1.2l3.1,0.3l0.8,4.9l-3.5,-0.4l-1.5,3.2l-2.8,0.6l3.8,4.3l2.9,0.3l5.7,-1.8l5.1,1.6l5,6.3l2.1,-1.7l3.8,0.4l5,-1l1.7,2.1l-0.8,2.5l-3.1,1.7l-0.3,3.1l3.1,3.3l0.6,-3.3l1.7,-1.4l3.5,1.3l0.3,-2.9l3.5,-0.2l1.2,-4.3l0,-5.4l3.5,-1.3l2.9,-0.5l3,3.7l1.6,-1.3l3.2,5l3.8,4.7l3.1,3.8l1.8,4.9l3.8,4.7l2.4,4.9l2.6,4.5l-0.4,3.6l2.1,4.3l3.9,-1.8l0.4,-3.8l4.6,-3.4l-2.8,-1.2l-1.5,-5l1.3,-5l-3.2,-2.7l-1.5,-4.1l1.9,-1.5l3.8,-1.4l0.3,-2.9l1.4,-4.3l1.9,-2l0.3,-2.7l-2.3,-1l1.7,-3.5l2.3,-2.3l3.8,-0.9l4.1,-1.5l1.5,-1.2l3.4,-2.8l2.9,-5l2.3,-4.2l2.5,-4.2l3.7,-1.4l1.9,3.3l4.4,0.5l2,2.4l3.8,0.4l1,6.4l-2,1.6l-1.5,6.6l-5.8,4.6l-2,4.6l2.8,3.1l-1.8,6.1l-1.8,5.1l-4.2,5.1l-2.1,7.7l-2.8,6.7l-1.8,3.3l0.9,5l2.9,3.5l-0.9,2.9l-4.3,2.7l-1.5,6.7l-4.1,0.7l-5.2,4.2l-3.2,3.7l-2.7,1.2l-4.5,-1.4l-2.9,1.5l-2.8,-2.2l-1.7,-2.1l-2.6,-1.2l-0.4,3.5l2.3,4.5l2.6,1.6l3.4,2.9l3.1,0.1l1.9,3.3l3.3,0.4s1.6,-2.3 1,-3.1s2.1,-1.7 2.1,-1.7l2.4,0.2l1.2,-1l4.7,-0.8l3.9,-1.6l0.4,-3.8l1.8,-1.4l3.1,-2.5l2.5,-2l1.6,-4.3l-0.5,-3.9l0,-3.5l2.7,-2.2l2.7,-2.2l3.8,0.4l4.2,-0.1l0.8,3.7l1.5,1.9l1.6,5.9l-3.2,2.6l-0.3,4.4l-0.3,2.7l3.3,4l4.1,1.4l0.3,-2.5l-4,-1.6l-1.4,-1.7l0.2,-2.2l0,-3.3l3,-0.6l1.4,-2.2l-0.7,-3.6l1.6,-2.8l-1.4,-3.8l-2.1,-2.4l-1.3,-1.6l-4.3,-2l-2.3,-2.8l-2.3,1.9l-2.9,1l-1.2,-2.2l-3.3,-0.4l-0.2,-3.5l2.4,-2l0.1,-5.9l3,-3.7l2.1,-4.6l4,-3.3l-0.9,-4.1l-0.7,-3.6l0.9,-3.7l-2.4,-2.9l3.2,-2.6l5,-4.1l3.8,0.4l2.6,-3.2l1.9,-3.7l-0.9,-3.2l1.6,-2.6l2.9,0.3l-1.5,3.4l-0.6,5.3l-1.2,4.7l-3.6,2.9l-0.5,4.6l-0.4,3.3l3.5,3.3l2,2.1l3,-1.4l2.5,3.1l2.8,3.2l0.2,-2.2l-0.9,-3l-1.9,-2.3l-3.1,-2l0.2,-1.5l-2.4,-3l-0.9,-4.1l4.1,-2.1l1.6,2l2.6,3.2l2.4,-1.8l-0.5,-2.5l0,-2.1l2.3,-1.9l3.6,1.1l3.1,-0.1l2.2,2.7l4.5,3.1l-1.7,3.5l1.1,1.3l2.8,3.5l4.9,0.5l1,-2.8l-1.7,-3l0.5,-2.5l-3.3,-1.6l-2.1,-4.5l-1.3,-1.6l1.6,-4.3l2,-3.5l-1.3,-1.6l-0.4,-4.7l4,-2.9l8.6,0.9l4.2,2.1l0.1,-1.1l7.1,0.8l5,-1.5l3.5,0.4l2,-1.6l-1.5,-2.9l-2.1,-1l-1.6,-2l2.3,-1.9c1.5,-1.2 1.2,1.5 1.2,1.5l2.2,-0.3l-1.3,-1.8l1.2,-2.2l-1.4,-1.7l2.1,-2.4l2.8,-1.7l-2.5,-0.5l0.1,-2.8l5.1,0.7l2.5,-4l5.2,-1.4l2.1,-1.7l7,-0.3l1.9,-1.6l5.1,-0.9l1.2,-1.2l-3.2,-1.4l2,-1.6l4.9,-0.6l4.1,-0.1l1.2,-1.8l3.3,-0.2l-2,3.1l-0.3,2.6l2.5,-2l5.6,0.8l0.9,-2.9l3.7,-0.3l3.6,1.1l-1.4,-2.4l-2,-1.9l-0.9,-2.1l4,0.4l4.3,-0.8l1.3,0.1l0,-3.1l-1.3,-1.2l0.5,-4.4l1.2,-2.8l3.5,-6.4l3.5,-2l3.2,-2.8l3.4,2.6l2.8,-0.1l0.4,3.8l-3.1,2.5l-2.7,2.9l5.8,0.9l1.3,-1l3.6,0.4l2.4,2.9l-2.6,2s-0.4,2.4 0.7,2.5a17.06,17.06 0 0 1 3.9,1.7l1.2,-3l-1.5,-1.8l4.2,-1.8l3.7,0.4l4,-2.2l1.9,2.3l3,-1.1l1.9,2.3l1.4,3.8l2,2.1l1.4,-1.3l1.7,2.1l2.2,2.7l-0.8,3.8l-3.6,-1.1l1.3,1.6l3.4,2.4l1.9,4.2l-2.3,1.9l-0.4,3.6l-2.1,2.4l-2.2,3.4l-2.3,1.9l-4.1,4l-0.2,1.8l-1.6,5l-3,2.4l-1.7,5.5l-4.5,0.6l-1.8,4l-3.3,2.7l-1.2,4.7l-1.3,3.2l3.4,-1.1l-0.3,-3.7l3.5,-1.6a18.3,18.3 0 0 1 4.7,-0.4c1.6,0.2 2.5,-3 2.5,-3l3.4,-2.2l3,-0.8l2.1,-3.2l-1.2,-1.5l-2.2,-0.4l0.3,-1.4l0.1,-2.9l2.8,0.1l2.2,0.2l3,1.1l3.5,1.9l1,-2.1l2.6,-2.9l1.7,2.1l-0.4,3.6l1.9,3.3l2.5,0.3l-2.3,-2.6l1.9,-1.5l3.7,-3l4.8,-1.9l7.1,-0.5l5.7,-1.1l1.1,2.2l-1.4,1.1l2.7,3.3l5.7,0.6l0.3,-1.4l0.8,-2l1.8,3.7l4,-1l4.2,-2.9s4.1,-0.3 5,-0.2s0.3,-3.3 0.3,-3.3l-0.2,-3.7l-2.5,-4.4l1.2,-4.1l0.8,-2.1l2,2.4l2.5,-1.5l1.7,2.1l2.7,2.3l1,-2.1l1.5,-0.2l1.3,1.8l1.6,-0.9s0.2,-3.4 1.5,-3.2s1.9,-1.6 1.9,-1.6l3.7,3.5l1.4,-1.1l4.2,1.9l-1.9,4.3l2.1,0.2l1.9,2.3l-0.4,3.5l3.7,-1.8l1.6,2l-0.4,4l-2.5,0.5l-1.6,1.3l2.3,2.8s2.1,-0.7 2.2,-1.6s1.5,1.8 1.5,1.8l-0.3,2.9l3.8,0.3l3.2,3.9l2.5,2.1l3.8,1.1l1.8,-1.5l4,2.6l0.7,-3.4l-1.2,-6.2l-0.8,-2.9l0.1,-2.7l-2.1,-2.6l0.3,-3.3l4.5,1l2.3,2.8l4.1,-0.7l4.6,0.5l-0.4,-4.8l3.1,-4.5l4.9,-0.6l3.5,0.2l3.9,1.5l0.3,-2.7l-4.1,-2.4l1.7,-1.4l2.2,-2l3.4,0.6l3,-2.4l-1.2,-0.9l-2.4,-3l-2.9,-2l0.4,-4l-1.2,-1.2l-2.3,4.6l-2,-1.7l0.4,-3.8l4.4,-3.2l-0.3,-2.6l-3.6,-2.8l2.6,-2.1l3.5,0.4l5.4,-2l1.9,-4l7,-1.8l5.5,-1.8a3.08,3.08 0 0 1 0.6,1.9c-0.1,1.1 -3.7,2 -3.7,2l-1.8,4.8l3.3,-1.1l3,-2.4l3.3,1.5l-1.7,7l3.4,-2.6l0.4,-3.5l-0.5,-6l1,-2.5l2.1,-4.4l4,-1.4l5.7,-1.8l3,2.7a29.12,29.12 0 0 1 -3.1,3c-1.3,1.1 1.1,2.1 1.1,2.1l4,0.4l2.9,-2.6s2.6,3.4 3.1,4s-0.1,-4.2 -0.1,-4.2l5.2,-2.2l3.4,2.2l3.8,0.2l3.8,-3.1l4.1,-4.2l0.6,-5.3l5.3,-6.3l4.2,-3.4l3.9,-3.8l6.1,-0.3l5,0.3l2.2,2.7l4.6,5.6l4.8,-1.5l3.6,-2.3l3.6,0.4l-1.5,-1.9l0.3,-2.6l3.8,-3.1l0.6,-6l2,-2.9l2.7,0.3l2.6,-2.1l0.4,-3.6l4.9,-2.8l1.6,-4.3l-1.6,-2l1,-2.1l-2.2,-3.9l2.4,-3.4l2.1,-1.7l3.1,3.8l-2.9,2.4l2.4,3l4.2,0.4l3,-0.8l4.2,-1.4l3.7,-0.5l1.2,-2.8l-0.8,-3l-2,-0.6l-5.9,-3.4l-4.6,0.2l-0.8,-2.7l-3.7,-0.4l0.2,-2l1.3,-3.4l3.5,-1.3l0.8,-3.8l3.1,-1.3l2.5,0.3l-0.8,-3.2l1.5,-3.2l3.6,-4.2l2,-5.1l6.1,-4.8l6.9,-5.5l3.1,-2.5l5.7,-1.8l4.2,-1.9l4,-3.3l4.1,-3.3l4.8,-1.3l3.8,-4.4l6.4,-1.2l3.7,-3.1l4.2,-1.4l2.7,-1.2l2.6,3.2l4.3,-0.8l3.6,3.2l2.7,-2.2l4.6,-1.9l0.2,-2.2l-4.5,0.4l-5.1,-0.9l-3.2,-1.2l1.5,-3.2l3.7,-2l-2.8,-1l0.2,-1.6l2,0.4l0.7,-3.2l2.1,-2.4l2.8,-2.3l4.6,-1.2l1.3,0.1l3.8,-4.2s3.2,-0.6 4.4,-1.6s-0.3,3.1 -0.3,3.1l2.2,2.3l1.6,2l-2.4,4s2.7,0.3 3.9,-0.7s-0.2,2.2 -0.2,2.2l-0.4,3.8l-4.5,2.3l3.2,0.9l2.2,-1.8l4.1,2.1l0.2,-1.9l3,3.7l2,3.9l2.1,-0.3l2.3,-2.3l-0.2,2.4l1,3.1l-3.8,-0.4l-0.2,1.5l3,1.2l-2.2,4.6l-4.2,-0.1l-4.4,3.7l-2.5,4.2l-4,0.9l-2.6,-1.4l-3.5,-0.4l-3.6,4.2l1.1,2.9l-0.5,4.7l-3.3,2.7l-2.2,-2.1l-2.6,1.6l-3.5,-0.4l-1.8,-1.9l-1.7,-1.3l-0.5,1.7l1.2,1.5l-1.7,0.6l-1.2,1l3.1,0.9l-0.3,2.5l2.2,2.7l4.1,-0.7l2.7,0.3l-0.2,3.5l1.8,-1.5l2.5,3.1l2.7,3.3l0.9,5.4l0.3,4.3l-3.4,4.4l-2.7,-0.3l-4,1.2l-1.6,2.8l3.2,-0.9l2,0.2l-3.3,3.1l1.6,2l2.5,-0.7l0.4,-3.5l2.4,-1.4l3.9,0.3l2.5,-2l1.3,-1.7l2.7,0.5l2.2,-0.1l4,0.2l-0.3,2.6l3.3,0.4l1.1,-1.6l3.2,0.3l2.1,-1.7l2.4,-0.1l1.8,1.9l3.2,-1.9l1,3.3l2.4,2.9l-0.4,3.8l-3.8,1.1l-2.9,4.9l-3.8,-0.4l-1.3,1.5l4,3.3l-1.4,1.2l2.6,5.1l0.7,6l-0.7,6.6l0.6,5.2l1.4,4.6l0.3,5.9l1.2,5.9l3.1,3.5l-0.6,5.3l1,7.5l2.7,3.8l1.8,2.2l-3.4,2.4l-3.1,-2l-4.7,1l-3,5.2l-4.4,5.1l1.8,2.2l-2,4.9l-0.2,2.7l2.6,5.1l-0.3,2.9l-3.3,-2l-2.3,-2.8l-2.2,-0.1l1.4,5.5l-0.4,3.5l3.2,1.9l-3.7,3l-2.2,-0.2l-0.5,4.7l-2.2,1.8l2.2,4.9l2,2.4l2.3,2.8l3.1,3.8l0.2,5.2l0.1,4.1l4.7,3.2l2.7,3.3l5.1,0.5l-1,-3.2l0.2,-1.5l1.9,-1.5l1.6,-2.6l4.2,5.2l0.5,4.3l4.4,3.8l4.6,1.5l2.1,-1.7l0.1,87l-5.8,-6.8l-1.7,-3l-3,-2.5l-3.6,-1.1l-7.6,-3.2l-4.9,-3.2l-4.6,-3.8l-1.9,-4.6l-4.7,-5.9l-3.2,-4.2l0.4,-3.8l-2.3,-2.8l-0.1,-4.2l-2.6,-4.7l-3.3,-1.1l0.2,-1.5l1.7,-1.4l1.6,-2.6l-1.4,-3.2l1.8,-1.5l1.5,-1.2l-1.2,-5.7l-0.3,-5.9l-1.5,-7l-3,-4.9l-0.8,-6.2l-1,-5.8l-1.3,-4.8l-1.5,-7l-2,-2.1l0.2,-3.7l1.8,-4.2l0.3,-2.6l0.3,-3.1l-2,-2.4l-1.9,-4.8l-2.4,-0.2l-2.1,-1l-1.9,-2.3l-2.2,-3.6l-3.6,-2.8l0.5,-4.2l3.8,-2.9l-1.1,-1.3l-3.1,2.5l-4.2,1.8l-0.4,3.8l-1.4,2.8l2,2.2l2.8,3.5l2.7,3.3l3.6,0.4l-0.6,2.3l-1.6,-0.4l-2,2.3l2,2.5l-0.6,5.8l1.4,4.6l-0.4,7l-1.8,4l-1.1,-3.8l-3.1,-2l-0.5,4.6l-2.4,-3l-1.6,-2l-1.1,-3.3l-4.6,-5.3l1,4.2l-1.9,4.2l-4.9,-0.5l-0.3,2.9l-2.3,5.8l-2.3,2.2l-0.7,8l3,2.5l-1.1,5l2.7,5.5l-0.6,5.5l0.2,7.3l2.7,3.3l-0.3,3.3l2.3,2.8l2.4,-0.1l2.3,-1.7l1.7,-1.4l2.7,0.3l-0.5,3.5l-3,0.6l-0.5,4.9l-5.6,0.3l0.6,6.5l-0.8,2.7l-3.6,1.1l-0.4,3.8l-1.7,3.3s-4.4,0.5 -3.5,-0.2s-1.5,-1.8 -1.5,-1.8l0.2,-2.4l1,-2.3l3.1,-0.7l-1.2,-1.5l-3.4,0.9l-3.5,0.2l-0.2,1.6l-5.4,1.8l-2.9,2.8l-3,0.4l-2.5,2.1l-1.2,2.6l0.5,3.6l1.8,2.2l-2.6,2.3l-3.7,-1.9l0.8,4l-3.1,2.5l-2.8,2.1l-2.2,-0.2l-2.4,1.8l1.2,2.5l1,1.2l-3.3,1.7l-4.2,-0.5l-4.5,3.7l-2.9,2.4l-3.5,4.6l-3.4,2.8l-3.8,5.9l-1.2,6l2.3,6.1l-3,2.4l-1.5,5.7l1.2,4.4l2.3,2.8l-2.7,3.4l-0.5,4.9l-0.7,6.6l-1.6,4.4l-0.7,6.2l1.6,2.2l-0.5,4.4l-0.5,4.9l-2.3,6l-0.5,5.1l-3.2,4.3l-0.5,4.6l-1.9,3.9l1.2,3.9l2.8,0.3l2.4,-1.9l3,0.3l2.6,-2.1l2.9,-2.4l1.6,2l2.1,1.3l-0.2,2.4l1.4,3.4l2,2.4l2.1,-1.7l0.3,-2.9l-2.4,-1.4l0.3,-2.7l2.2,-2l-0.2,1.8l2,1.9l1.1,-0.2l1,1.2l-0.3,3.3l-0.2,2.4l3.8,-1.1l0.2,-1.8l2.3,-2.5l1.4,-1l1.8,1.7l0.8,-3l-1.5,-1.9l-1.3,-3.3l-1.6,-3.9l3.5,-1.5l2.2,-1.8l4.1,-0.5l4.7,0.5l3.9,0.9l1.5,1.9s4.3,-0.3 5.2,-0.2a15.28,15.28 0 0 0 3.6,-0.7l2,2.5l-1.9,1.7l-1.4,1.1l-1.3,1.9l3.1,0.3l3.3,0.4l0.5,2.5l2.4,3l3.4,-0.1l1.5,1.9l1.5,3.7l-0.2,7l1.6,7.5l3.2,5.8l4.2,5.1l1.6,2l0.6,3.2l3.3,4l2.1,4.7l0.6,2.7l2.8,5.6l2.5,3.1l-0.8,7.7l-1.8,6.5l1.3,6.8l-0.9,6.7l1.4,5.5l0.8,6l0.5,5.4l0.3,7.2l-0.7,6.9l-1.5,3.5l-0.8,7.1l-0.9,8.8l-1.8,6.5l0.6,5.5l-43.2,0.1l0,0l3.1,-1.1l2.7,-0.3l3.2,-0.7l2,-3.1l-2.4,-4.9l1.9,-3.7l-1.4,-4.2l0.1,-4.2l-2.2,-3.7l1,-2.8l-1.6,-3.7l-0.5,-4.1l-3.2,-4.2l3,-2.4l0.4,-4l-2,-2.5l-2.4,-2.9l-0.5,-2.5l-3.1,-0.3l-4.6,1.9l-1.5,3.5l-3.4,4.4l-3.7,3.8l1,4.7l-4.2,2.7l-4.1,1.8l-3.4,0.7l-1.3,3.2l-3.5,-0.4l-3.2,-2.4l-2.5,-1.2l0.5,-4.2l-2.6,-2.9l-2.1,-2.6l-3.8,-1.4l-2.3,1.9l-4.1,-1.5l-3.4,-1.3l-5.4,0.2l-4.9,-0.5l-2.3,1.8l-5.7,1.4l-5.3,-1.7l-1.8,-4.7l-2.4,-2.9s-2.9,-2.2 -2.8,-2.9s-3.1,-3.8 -3.1,-3.8l-4.3,-1.2l-1.4,-4.6l-3.8,-3.7l-2.6,-3.2l-3.9,-1.5l-1,-4l-3.5,-2l-2,-2.4l-7.2,-1.5l-3.8,-0.4l-4.6,1.9l-5.4,-1.5l-4.3,1l-4.6,-0.5l-6.7,3.9l-3.2,2.6l-6.1,2.8l-3.1,2.5l-2.7,5.8l-1.8,3.5l1.7,2.8l3.1,-2l2,2.5l2.3,2.8l0.8,6l-1.8,3l-2,7.7l-0.5,4.9l-2.5,4.9l2.2,5.6l1.5,1.8l-0.5,5.1l-4,0.7l-3.1,5.5l-3.9,3.2l-6.2,1.5l-6.7,-1.3l-4.8,-1.4l-3.9,1.8l-5.4,2.4l-3.6,-2.4l-3.3,-1.7l-4.8,1.5l-4.2,3.4l-3,2.4l-114.4,-0.3l-3.8,-4.8l-4.5,-2.3l-4.6,-0.5l-5.3,0.8l-3.2,-3.9l-7.1,-0.8l-3.9,-3.5l-2.3,1.9l-3.1,2.5l-2.8,4.4l-2.7,2.2l-0.1,4.1l-33.5,0l-104.5,-0.5l-0.3,-4.5l-2.3,-2.6l-3.3,-1.9l-2,-2.5l-4.6,-0.5l-2.5,2l-4.6,0.2l-1.6,-2l-4.1,0.3l-2,-2.4l-1.8,-2.2l0.3,-2.7l-1.8,-2.6l-3,0.6l-2.5,4l-4.1,0.3l-1.9,-5l-0.8,-4.3l-0.4,-4.8l-2.5,-5.8l0.5,-4.4l-2.6,-3l0.6,-6l-1.4,-7.5l-2.8,-3.4l-1.8,-2.2l-1.6,-4.7l-2,-2.5l-3,-1.6l0.4,-3.3l2.5,0.3l2.5,-2.7l-0.6,-2.7l-3.8,-0.3l-3,2.4l-3.9,-0.2l-2.8,-0.2l-3.3,2.7l-5.3,0.9l-4.6,1.9l-1.7,-3.1l-4,1.4l-3.1,-0.3l1.6,-4.8l4.6,-1.5l0.3,-2.5l-3.6,-0.4l-3.1,-2.4l-2.2,1.8l-3.5,-1.5l1.6,-4.2l-2.4,-2.9l-3.9,1.8l-3.9,-1.5l-0.7,-3.3l2.5,-2l0.4,-3.5l1.2,-2.5l-1,-4.7l-2.6,-1.6l-3.3,-0.3l-1.3,-3.5l-4.6,-0.5l-3.4,-2.6l-4,-0.8l-2.5,2.9l-4.6,-0.5l-4.1,0.7l-3.1,-2.2l-4.1,0.3l-4.9,-0.5l-4.5,-3l-1.9,-0.2l-2.3,1.9l-3.7,0.3l-3.3,-2.2l-3.1,-0.3l-4.1,-1.7l-6.2,-0.5l-4.5,-1.4l-3.4,0.6l-2.6,-2.9l-4,-2.6l-3.8,-0.4l-1.7,3.9l1,2.9l-2.8,2.3l1.9,1.5l1.8,2.2l2.2,2.7l-2.5,2l-2.5,-0.3l-2.8,-3.5l-4.8,-0.3l-3.2,0.9l0.8,4.7l-1.6,3.2l-3.2,0.6l-3.6,-1.3l-1.9,3.7l0.9,2.8l2.3,2.8l1.6,1.9l0.4,3.2l2.3,2.8l-2.9,3.2l-2.6,2.1l-4,-0.4l-4.1,-0.2l-1.9,-2.3l-1.1,-3.1l-1.9,-0.2l-2.2,1.8l-3.2,-0.3l-3.2,-3.9l-0.5,-2.1l-2.4,-3l0.5,-4.7l-2,-2.5l-4.2,-0.5l-3.6,0.9l-1,-2.9l-3.2,-3.1l-2.9,-2l-4.5,1.6l-3.9,0.1l-3,-1.2l-1.7,-4.4l-2.8,-3.1l-2.6,3.4l-2.4,-0.2l0.3,-2.9l2.4,-2l-1.1,-3.3l-1.3,-4.9l-0.2,-5l-2.4,-3.6l-4.2,-2.1l-0.9,-3.2l-2.1,-2.6l-4.4,0.3l-2.6,-0.3l0.4,-3.5l-0.9,-3.8l-4.4,-1.3l-2.5,2l-4.4,1l-3.4,-2.4l-3.8,-0.4l-2.1,2.5l-3.8,-0.4l-4.2,-0.5l-1.1,1.9l-2.6,2.1l-0.7,3.4l-4.4,-1.3l-2.4,-2.9l0.4,-3.6l1.6,-3.4l-1.7,-2.1l-3.1,-0.3l-1.6,2.8l-2.6,1.5l-3.6,-0.4l-3.1,2.6l-2.6,2.1l-0.4,3.3l-3.2,1l-3.3,-0.5l-2.6,2.1l-3.1,1.7l0.8,3.7l2.4,2.9l-1.6,4.6l-2.6,2.1l2.2,1.7l3.1,3.6l2,2.4l-1.4,4.6l0.3,6.3l-0.5,5l-2.1,1.7l-1.6,-2.2l-2.7,-0.7l0,3.3l1.2,3.4l2,2.5l-2,1.6l-3.4,0l-2.6,-0.3l-2,-0.2l-1.6,-0.2a25.49,25.49 0 0 1 -3.9,-0.2c-1.7,-0.2 -1.2,-1.5 -1.2,-1.5l-2.7,-1l-1.1,-1.4l-3.2,-0.9l-0.3,2.6l-2.7,0.8l-3.5,3.3l-3.5,-0.4l-3.9,0.7l-2.2,-0.8l-2.1,1.7l-0.3,3l1.7,2.1l0.7,3.6l-1.3,3.4l-1.2,3.1l-2.3,1.9l-0.1,1.3l-2,1.5l-4.8,6.2l-0.5,5.1l0.4,6.3l-1.2,4.7l-0.3,5.9l-4.6,1.5l-2.8,-1.6l-4.3,1l-3.9,-1.3l-0.2,-3.5l-1.3,-6.3l0.1,-4.4l-2.7,-2.3l0.2,-2.4l-1,-4l-2.2,-3.6l1.9,-2.6l1.4,-3l-2.4,-3.2l-0.6,-3.3l-3.1,-0.7l-0.4,-2l-2,-2.5l-4,-1l-2.3,-2.8l-0.1,-5.9l-2.3,-2.7l1.2,-3.5l-2.8,-2.9l-1.2,-4.4l-2.6,-1.6l-3.7,-3.2l-0.8,-4.5l-2.3,-4.5l-0.5,-3.9l-2,-0.6l-2,-3.2" class="cls-2" id="path3172"/>
   <polygon points="943.84 465.7 942.04 467.3 941.84 469.5 941.64 471.9 944.44 471 945.64 472.6 947.44 471.2 948.44 468.1 946.94 465.4 943.84 465.7" class="cls-2" id="polygon3174"/>
   <path d="m989.44,454.2l-1.3,0.2l-0.7,-2.8l0.2,-2.4l4,1.5l2,1.2l0.8,2.6l2,2.5l3.9,1.2l0.7,2.6l4.1,3.3l2.4,0.2l1.6,2.9l1.1,4.4l2.2,2.7l4.1,5.3l2.9,1.1l3.9,2l3.6,3.9l5,3.6l3.2,3.4l4.3,2.9l3.7,2.8l2.3,2.3l4.2,2.2l-0.8,2l-1.8,1.4l-3.1,0.6l-2.4,-0.2l0.3,3.4l-0.9,2.3l-0.2,1.9l2.2,4.4s2.2,3.1 1.7,3.5s-0.4,4.9 -0.4,4.9l1.8,2.3l2.8,3.5l2.5,2l4.1,0.4l2.1,2.6l2.7,0.3l1.1,3.2l3.4,0.5l2.4,-1.9l3.5,2.5l1.9,3.1s0.6,2 -0.2,1.9s-4.8,-2.6 -4.8,-2.6l-2,1.6l-4,-0.4l-1.6,3.1l0.4,3.2l2.2,2.8l1.4,4.3l-2.7,1.8l-1.8,-2.7l-2.4,-3l-4.3,-4.9l0.3,-3l-2.8,-3.5l-2.7,-3.3l-1.8,-2.9l-2,-5.2l-2.8,-3.3l-3.1,-2.2l-3.1,-1.3l-2.1,-6l-5,-8.7l-4.2,-5.2l-3.5,-4.4l-3,-5.1l-1.8,-3.9l-5.7,-3.3l-4.5,-2.6l-2.8,-0.6l-3.2,-5.6l0.2,-2.4l-3.7,-4.5l-1.8,-4.3l-4.3,-1.9l1.4,-3l0.2,-2.4l3.5,1.5l1,-3.1l-1.9,-2.4l0.1,-1.2l-1.9,-2.3l-2.3,-1.3z" class="cls-2" id="path3176"/>
   <polygon points="1064.84 265.6 1064.24 268.8 1065.94 270.2 1067.04 271.9 1066.94 274.8 1069.34 276 1069.04 273.1 1068.14 270.8 1069.64 267.2 1070.14 262.8 1067.24 261.2 1065.24 262.1 1065.24 262.1 1064.84 265.6" class="cls-2" id="polygon3188"/>
   <polygon points="942.44 70.1 942.24 74 941.14 74.8 941.24 78 942.84 80.9 944.24 85.4 947.04 86.3 949.24 84.6 951.04 82 949.54 80.1 952.34 76.9 952.34 73 952.84 68.5 950.64 66.4 950.64 66.4 949.24 65.7 947.84 66.9 944.94 68 942.44 70.1" class="cls-2" id="polygon3200"/>
   <polygon points="36.74 232.4 37.94 234.9 39.24 236.1 39.44 239.7 37.84 242.2 31.44 244.6 23.34 232.7 19.34 219.9 19.34 219.9 22.14 220.8 24.64 220.4 25.74 218.7 27.94 219.3 29.74 221.6 29.54 224.4 31.14 225.1 31.24 227.3 33.84 228.1 34.64 226.1 33.34 224.5 34.74 223.4 35.44 224.3 37.74 226.6 37.34 229.7 36.74 232.4" class="cls-2" id="polygon3202"/>
  </g>
  <path d="m274.44,176.7c49.11,-9.67 89,-9.9 116.57,-8.26c79,4.72 103.76,27.59 187,25.76c19.88,-0.44 36.68,-2.14 67,-0.21c50,3.19 56,11.15 87,12c33.14,0.91 62.13,-10.86 121,-32a767.06,767.06 0 0 0 90.84,-39.4" class="cls-6 animate10" id="p11"/>
  <path d="m943.84,134.6c-61.4,22.4 -94.63,42.53 -113.84,57.4c-4.18,3.23 -25.62,20.09 -58,45c-9,6.92 -16.4,12.59 -21.26,16.3" class="cls-6 animate" id="p10"/>
  <path d="m274.44,176.7a708.65,708.65 0 0 1 95.2,-12.5c59.1,-3.8 89.2,-5.3 113.3,12c30.4,21.8 38.5,61.1 40.6,85.5" class="cls-7 animate" id="p9"/>
  <path d="m247.84,264c-1.7,-4.2 -3.3,-9.9 -0.6,-13.6c5.5,-7.6 22.1,3.1 36.5,-4.5c10.8,-5.7 19.6,-21.5 15,-36c-5.1,-16 -23.4,-32.9 -24.3,-33.1" class="cls-7 animate" id="p8"/>
  <path d="m523.54,261.7a121.42,121.42 0 0 1 21,-32.4c5.61,-6.2 27.39,-28.93 62,-36.8c11.24,-2.56 41.55,4.59 101.7,19c22.32,5.34 40.83,10 45,23.46c2.06,6.7 -0.11,13.46 -2.47,18.34" class="cls-7 animate" id="p7"/>
  <path d="m345.677511,273.847856c1.6,-4 5.1,-14.6 1,-25.8c-6.1,-16.9 -26.4,-26.8 -41.5,-24c-17.3,3.2 -19.1,21.4 -38,23c-9.9,0.8 -17.8,-3.4 -21.5,1c-2.7,3.3 -1.2,9.2 0.6,13.6" class="cls-7 animate" id="p4"/>
  <path d="m523.54,261.7c-10.8,-11.1 -25.8,-13.8 -32.3,-16.3c-39.8,-15.4 -87.7,7.7 -104.1,15.6a246.7,246.7 0 0 1 -24.9,10.4q-7.35,2.7 -15,4.8" class="cls-7 animate" id="p6"/>
  <path d="m247.84,264c-3.5,-17.7 -8.5,-30 -12.8,-29.8c-5.7,0.3 -8.8,22.9 -9.1,25.5" class="cls-8 animate" id="p5"/>
  <path d="m274.44,176.7c39.57,12.8 59.87,34 69.3,46.1c3.14,4 28,36.34 18.5,48.6c-3.17,4.11 -9.37,4.91 -15,4.7" class="cls-7 animate" id="p3"/>
  <path d="m274.44,176.7c93.1,-14.5 159.3,-7.8 203.3,1.6c33.4,7.1 61.4,17.3 109.5,17.3c33.58,0 47.17,-4.86 74.61,-0.62a172.78,172.78 0 0 1 22.15,5.02c37.64,10.66 79.17,33.32 76.29,46c-0.49,2.16 -2.48,5 -9.55,7.31" class="cls-7 animate" id="p2"/>
  <path d="m943.84,134.6c-42.7,-6.7 -93.9,-6.8 -144.1,15.2c-37.3,16.4 -35,27.9 -69,38c-58.9,17.6 -93.9,-8.5 -146.8,14.5c-25.3,11 -39.2,26.5 -42.6,30.5a109.88,109.88 0 0 0 -17.8,28.8" class="cls-6 animate" id="p1"/>
  <path d="m271.94,176c9.31,-7.67 19.08,-18.6 19.71,-32.11c2,-42.27 -87,-80.62 -145.31,-93.67c-29.6,-6.58 -80.7,-13.22 -146.1,2.78" class="cls-6 animate" id="p12"/>
  <path d="m945.216147,131.827711c2.16,-22.09 51.34,-64.3 58.16,-72.48c41.76,-50.1 83,-10.1 90.44,104.6" class="cls-6 animate" id="p13"/>
  <circle id="svg_150" r="2" cy="264.9" cx="246.749378" class="cls-9"/>
  <circle id="svg_151" r="2" cy="260.3" cx="225.349378" class="cls-9"/>
  <circle id="svg_152" r="2" cy="175.9" cx="271.749378" class="cls-9"/>
  <circle id="svg_153" r="2" cy="277.9" cx="345.749378" class="cls-9"/>
  <circle id="svg_155" r="2" cy="260.9" cx="522.749378" class="cls-9"/>
  <circle id="svg_159" r="2" cy="267.9" cx="276.749378" class="cls-9"/>
  <circle id="svg_161" r="2" cy="290.9" cx="462.749378" class="cls-9"/>
  <circle id="svg_163" r="2" cy="309.9" cx="534.749378" class="cls-9"/>
  <circle id="svg_164" r="2" cy="292.9" cx="628.749378" class="cls-9"/>
  <circle id="svg_165" r="2" cy="133.9" cx="943.749378" class="cls-9"/>
  <circle id="svg_166" r="2" cy="337.9" cx="448.749378" class="cls-9"/>
  <circle id="svg_169" r="2" cy="254.9" cx="749.749378" class="cls-9"/>
  <text xml:space="preserve" text-anchor="start" font-family="Helvetica, Arial, sans-serif" font-size="8" id="svg_170" y="171.792987" x="204.686391" stroke-opacity="null" stroke-width="0" stroke="null" fill="#ffffff"> </text>
  <text xml:space="preserve" text-anchor="start" font-family="Helvetica, Arial, sans-serif" font-size="8" id="svg_171" y="259.682948" x="250.389172" stroke-opacity="null" stroke-width="0" stroke="null" fill="#ffffff"></text>
  <text xml:space="preserve" text-anchor="start" font-family="Helvetica, Arial, sans-serif" font-size="8" id="svg_172" y="337.416737" x="400.388039" stroke-opacity="null" stroke-width="0" stroke="null" fill="#ffffff"> </text>
  <text xml:space="preserve" text-anchor="start" font-family="Helvetica, Arial, sans-serif" font-size="8" id="svg_173" y="312.807547" x="540.621361" stroke-opacity="null" stroke-width="0" stroke="null" fill="#ffffff"></text>
  <text xml:space="preserve" text-anchor="start" font-family="Helvetica, Arial, sans-serif" font-size="8" id="svg_174" y="292.104579" x="467.96566" stroke-opacity="null" stroke-width="0" stroke="null" fill="#ffffff"></text>
  <text xml:space="preserve" text-anchor="start" font-family="Helvetica, Arial, sans-serif" font-size="8" id="svg_175" y="262.417301" x="526.558971" stroke-opacity="null" stroke-width="0" stroke="null" fill="#ffffff"></text>
  <text style="cursor: move;" xml:space="preserve" text-anchor="start" font-family="Helvetica, Arial, sans-serif" font-size="8" id="svg_176" y="295.229556" x="637.105014" stroke-opacity="null" stroke-width="0" stroke="null" fill="#ffffff"></text>
  <text xml:space="preserve" text-anchor="start" font-family="Helvetica, Arial, sans-serif" font-size="8" id="svg_177" y="257.203029" x="724.604354" stroke-opacity="null" stroke-width="0" stroke="null" fill="#ffffff"></text>
  <text style="cursor: move;" xml:space="preserve" text-anchor="start" font-family="Helvetica, Arial, sans-serif" font-size="8" id="svg_178" y="133.349819" x="950.292419" stroke-opacity="null" stroke-width="0" stroke="null" fill="#ffffff"></text>
 </g>
</svg>